<svg width="50" height="32" viewBox="0 0 50 32" fill="none" xmlns="http://www.w3.org/2000/svg">
<path fill-rule="evenodd" clip-rule="evenodd" d="M49.5 16.0001C49.5 15.5359 49.3156 15.0908 48.9874 14.7626C48.6592 14.4344 48.2141 14.2501 47.75 14.2501H6.47445L17.489 3.23907C17.6517 3.07637 17.7807 2.8832 17.8688 2.67062C17.9568 2.45803 18.0022 2.23018 18.0022 2.00007C18.0022 1.76997 17.9568 1.54212 17.8688 1.32953C17.7807 1.11694 17.6517 0.923782 17.489 0.761074C17.3262 0.598366 17.1331 0.4693 16.9205 0.381243C16.7079 0.293186 16.4801 0.247864 16.25 0.247864C16.0199 0.247864 15.792 0.293186 15.5794 0.381243C15.3668 0.4693 15.1737 0.598366 15.011 0.761074L1.01095 14.7611C0.847983 14.9236 0.718683 15.1167 0.630461 15.3294C0.542238 15.542 0.496826 15.7699 0.496826 16.0001C0.496826 16.2303 0.542238 16.4582 0.630461 16.6708C0.718683 16.8834 0.847983 17.0765 1.01095 17.2391L15.011 31.2391C15.1737 31.4018 15.3668 31.5308 15.5794 31.6189C15.792 31.707 16.0199 31.7523 16.25 31.7523C16.4801 31.7523 16.7079 31.707 16.9205 31.6189C17.1331 31.5308 17.3262 31.4018 17.489 31.2391C17.6517 31.0764 17.7807 30.8832 17.8688 30.6706C17.9568 30.458 18.0022 30.2302 18.0022 30.0001C18.0022 29.77 17.9568 29.5421 17.8688 29.3295C17.7807 29.1169 17.6517 28.9238 17.489 28.7611L6.47445 17.7501H47.75C48.2141 17.7501 48.6592 17.5657 48.9874 17.2375C49.3156 16.9093 49.5 16.4642 49.5 16.0001Z" fill="white"/>
</svg>
