<svg width="13" height="20" viewBox="0 0 13 20" fill="none" xmlns="http://www.w3.org/2000/svg">
<g clip-path="url(#clip0)">
<path d="M3.25057 20C5.04421 20 6.49991 18.5067 6.49991 16.6667V13.3334H3.25057C1.45693 13.3334 0.0012207 14.8267 0.0012207 16.6667C0.0012207 18.5067 1.45693 20 3.25057 20Z" fill="black"/>
<path d="M0.0012207 9.99995C0.0012207 8.15996 1.45693 6.66663 3.25057 6.66663H6.49991V13.3333H3.25057C1.45693 13.3333 0.0012207 11.84 0.0012207 9.99995Z" fill="black"/>
<path d="M0.0012207 3.33333C0.0012207 1.49333 1.45693 0 3.25057 0H6.49991V6.66667H3.25057C1.45693 6.66667 0.0012207 5.17333 0.0012207 3.33333Z" fill="black"/>
<path d="M6.5 0H9.74935C11.543 0 12.9987 1.49333 12.9987 3.33333C12.9987 5.17333 11.543 6.66667 9.74935 6.66667H6.5V0Z" fill="black"/>
<path d="M12.9987 9.99995C12.9987 11.84 11.543 13.3333 9.74935 13.3333C7.95571 13.3333 6.5 11.84 6.5 9.99995C6.5 8.15996 7.95571 6.66663 9.74935 6.66663C11.543 6.66663 12.9987 8.15996 12.9987 9.99995Z" fill="black"/>
</g>
<defs>
<clipPath id="clip0">
<rect width="13" height="20" fill="white"/>
</clipPath>
</defs>
</svg>
