<svg width="43" height="43" viewBox="0 0 43 43" fill="none" xmlns="http://www.w3.org/2000/svg">
<path d="M15.4316 36.4209C15.7451 36.2853 16.0122 36.061 16.1999 35.7757C16.3877 35.4904 16.488 35.1564 16.4884 34.8148V30.095C16.486 29.9146 16.494 29.7342 16.5123 29.5547H16.4765H13.3419C12.0313 29.5547 10.8939 29.0292 10.3566 27.9814C9.7595 26.8679 9.49679 24.9393 7.92353 23.8825C7.66082 23.7094 7.83397 23.4467 8.35939 23.4467C8.8848 23.5333 10.0192 24.2348 10.7208 25.1961C11.5059 26.1574 12.294 26.9425 13.6912 26.9425C15.8645 26.9425 17.0317 26.835 17.7303 26.4589C18.5483 25.2439 19.6797 24.3214 20.8589 24.3214V24.2975C15.9063 24.1393 12.7389 22.5063 11.2671 19.9509C8.72475 19.9744 6.18749 20.1829 3.67542 20.5748C3.62467 20.2763 3.57989 20.0016 3.54407 19.7121C5.95885 19.3364 8.39669 19.1279 10.8402 19.0881C10.7418 18.8453 10.6571 18.5971 10.5864 18.3448C8.19876 18.2217 5.80567 18.2506 3.42167 18.4314C3.40376 18.1328 3.37988 17.8343 3.37689 17.5567C5.70927 17.382 8.05015 17.3501 10.3864 17.4611C10.3164 17.0178 10.2825 16.5695 10.2849 16.1207C10.3119 14.5434 10.8341 13.0145 11.7776 11.7502C11.3417 10.2576 10.7297 7.117 11.9537 5.97959C13.7259 5.98628 15.4348 6.63905 16.7601 7.81556C18.3415 7.17039 20.0347 6.84372 21.7426 6.85429C23.4232 6.83516 25.0898 7.16238 26.6385 7.81556C27.9605 6.63645 29.6675 5.98042 31.4389 5.97064C32.7494 7.19462 32.0509 10.3411 31.615 11.7383C32.5809 12.9895 33.0746 14.5414 33.0092 16.1207C33.0065 16.5334 32.9746 16.9454 32.9136 17.3537C35.3014 17.2354 37.6943 17.2653 40.0784 17.4432C40.0784 17.7417 40.0485 18.0403 40.0336 18.3149C37.6028 18.1323 35.1627 18.1064 32.7285 18.2373C32.6467 18.5287 32.547 18.8149 32.43 19.0941C34.9285 19.1216 37.4222 19.3211 39.8933 19.6912C39.8575 19.9897 39.8127 20.2703 39.762 20.5539C37.1927 20.1663 34.5985 19.9667 32.0001 19.9569C30.5731 22.4675 27.4654 24.1094 22.6083 24.3005V24.3274C24.8801 24.3274 26.9788 27.7366 26.9788 30.095V34.8148C26.9793 35.1564 27.0795 35.4904 27.2673 35.7757C27.455 36.061 27.7221 36.2853 28.0356 36.4209" stroke="white" stroke-miterlimit="10"/>
<path d="M21.5873 0.895595C25.6023 0.895595 29.5271 2.08618 32.8655 4.31679C36.2038 6.5474 38.8057 9.71785 40.3422 13.4272C41.8787 17.1366 42.2807 21.2183 41.4974 25.1561C40.7141 29.094 38.7807 32.7111 35.9417 35.5501C33.1027 38.3892 29.4855 40.3226 25.5477 41.1059C21.6098 41.8891 17.5281 41.4871 13.8188 39.9507C10.1094 38.4142 6.93895 35.8123 4.70834 32.4739C2.47773 29.1356 1.28715 25.2108 1.28715 21.1958C1.29268 15.8135 3.43322 10.6533 7.23904 6.84749C11.0449 3.04167 16.2051 0.901128 21.5873 0.895595ZM21.5873 0C17.3952 0 13.2972 1.24311 9.81158 3.57213C6.32595 5.90115 3.60924 9.21147 2.00498 13.0845C0.400724 16.9575 -0.0190224 21.2193 0.798821 25.3308C1.61666 29.4424 3.63536 33.2191 6.59964 36.1834C9.56392 39.1477 13.3406 41.1664 17.4522 41.9842C21.5638 42.8021 25.8256 42.3823 29.6986 40.7781C33.5716 39.1738 36.8819 36.4571 39.2109 32.9715C41.54 29.4859 42.7831 25.3879 42.7831 21.1958C42.7831 15.5743 40.5499 10.1831 36.575 6.20809C32.6 2.23312 27.2088 0 21.5873 0Z" fill="white"/>
</svg>
