<svg width="44" height="43" viewBox="0 0 44 43" fill="none" xmlns="http://www.w3.org/2000/svg">
<path d="M15.7516 5.97064C13.366 5.97301 11.0787 6.92174 9.39184 8.60863C7.70495 10.2955 6.75622 12.5828 6.75385 14.9684V27.4231C6.75622 29.8088 7.70495 32.096 9.39184 33.7829C11.0787 35.4698 13.366 36.4185 15.7516 36.4209H28.2063C30.592 36.4185 32.8792 35.4698 34.5661 33.7829C36.253 32.096 37.2017 29.8088 37.2041 27.4231V14.9684C37.2017 12.5828 36.253 10.2955 34.5661 8.60863C32.8792 6.92174 30.592 5.97301 28.2063 5.97064H15.7516ZM15.7516 7.35582H28.2063C29.2064 7.35465 30.1968 7.55075 31.1209 7.9329C32.0451 8.31504 32.8847 8.87574 33.5919 9.58286C34.299 10.29 34.8597 11.1297 35.2418 12.0538C35.624 12.9779 35.8201 13.9684 35.8189 14.9684V27.4231C35.8201 28.4232 35.624 29.4136 35.2418 30.3377C34.8597 31.2619 34.299 32.1015 33.5919 32.8087C32.8847 33.5158 32.0451 34.0765 31.1209 34.4586C30.1968 34.8408 29.2064 35.0369 28.2063 35.0357H15.7516C14.7516 35.0369 13.7611 34.8408 12.837 34.4586C11.9129 34.0765 11.0732 33.5158 10.3661 32.8087C9.65895 32.1015 9.09825 31.2619 8.7161 30.3377C8.33395 29.4136 8.13785 28.4232 8.13903 27.4231V14.9684C8.13785 13.9684 8.33395 12.9779 8.7161 12.0538C9.09825 11.1297 9.65895 10.29 10.3661 9.58286C11.0732 8.87574 11.9129 8.31504 12.837 7.9329C13.7611 7.55075 14.7516 7.35465 15.7516 7.35582ZM30.2841 11.5084C30.0099 11.5078 29.7417 11.5886 29.5134 11.7406C29.2852 11.8926 29.1072 12.1089 29.002 12.3621C28.8968 12.6154 28.8691 12.8941 28.9224 13.1631C28.9758 13.4321 29.1078 13.6792 29.3017 13.8731C29.4956 14.067 29.7427 14.1989 30.0116 14.2523C30.2806 14.3057 30.5594 14.278 30.8126 14.1728C31.0658 14.0675 31.2821 13.8895 31.4341 13.6613C31.5861 13.433 31.6669 13.1648 31.6663 12.8906C31.6663 12.524 31.5207 12.1725 31.2615 11.9132C31.0023 11.654 30.6507 11.5084 30.2841 11.5084ZM21.979 13.5832C20.4733 13.5832 19.0015 14.0297 17.7497 14.8661C16.4978 15.7026 15.5221 16.8915 14.9459 18.2826C14.3697 19.6736 14.2189 21.2042 14.5127 22.6809C14.8064 24.1576 15.5314 25.514 16.5961 26.5787C17.6607 27.6433 19.0171 28.3683 20.4938 28.662C21.9705 28.9558 23.5012 28.805 24.8922 28.2288C26.2832 27.6527 27.4721 26.677 28.3086 25.4251C29.1451 24.1732 29.5915 22.7014 29.5915 21.1958C29.5892 19.1775 28.7864 17.2426 27.3592 15.8155C25.9321 14.3884 23.9972 13.5856 21.979 13.5832ZM21.979 14.9684C23.2106 14.9684 24.4146 15.3336 25.4387 16.0179C26.4628 16.7022 27.261 17.6747 27.7323 18.8126C28.2036 19.9506 28.327 21.2027 28.0867 22.4107C27.8464 23.6187 27.2533 24.7283 26.3824 25.5992C25.5115 26.4701 24.4019 27.0632 23.1939 27.3035C21.9859 27.5438 20.7338 27.4204 19.5959 26.9491C18.458 26.4778 17.4854 25.6796 16.8011 24.6555C16.1168 23.6314 15.7516 22.4274 15.7516 21.1958C15.75 20.3775 15.91 19.567 16.2224 18.8108C16.5348 18.0545 16.9935 17.3674 17.572 16.7888C18.1506 16.2103 18.8377 15.7516 19.594 15.4392C20.3502 15.1268 21.1607 14.9668 21.979 14.9684Z" fill="white"/>
<path d="M21.9789 0.895595C25.9939 0.895595 29.9187 2.08618 33.2571 4.31679C36.5954 6.5474 39.1973 9.71785 40.7338 13.4272C42.2703 17.1366 42.6723 21.2183 41.889 25.1561C41.1057 29.094 39.1723 32.7111 36.3333 35.5501C33.4943 38.3892 29.8771 40.3226 25.9393 41.1059C22.0014 41.8891 17.9197 41.4871 14.2104 39.9507C10.501 38.4142 7.33055 35.8123 5.09994 32.4739C2.86933 29.1356 1.67875 25.2108 1.67875 21.1958C1.68428 15.8135 3.82482 10.6533 7.63064 6.84749C11.4365 3.04167 16.5967 0.901128 21.9789 0.895595ZM21.9789 0C17.7868 0 13.6888 1.24311 10.2032 3.57213C6.71755 5.90115 4.00084 9.21147 2.39658 13.0845C0.792326 16.9575 0.372579 21.2193 1.19042 25.3308C2.00827 29.4424 4.02697 33.2191 6.99125 36.1834C9.95553 39.1477 13.7322 41.1664 17.8438 41.9842C21.9554 42.8021 26.2172 42.3823 30.0902 40.7781C33.9632 39.1738 37.2735 36.4571 39.6025 32.9715C41.9316 29.4859 43.1747 25.3879 43.1747 21.1958C43.1747 15.5743 40.9416 10.1831 36.9666 6.20809C32.9916 2.23312 27.6004 0 21.9789 0Z" fill="white"/>
</svg>
