<svg width="43" height="43" viewBox="0 0 43 43" fill="none" xmlns="http://www.w3.org/2000/svg">
<path d="M9.04719 10.9442C8.23685 10.9481 7.46082 11.2717 6.88782 11.8447C6.31481 12.4177 5.99117 13.1938 5.98724 14.0041V28.2859C5.99117 29.0962 6.31481 29.8722 6.88782 30.4452C7.46082 31.0182 8.23685 31.3419 9.04719 31.3458H33.5268C34.3387 31.3443 35.117 31.0216 35.692 30.4484C36.2669 29.8751 36.5918 29.0978 36.5957 28.2859V14.0041C36.5918 13.1938 36.2681 12.4177 35.6951 11.8447C35.1221 11.2717 34.3461 10.9481 33.5358 10.9442H9.04719ZM9.46812 12.9831H33.1059L24.0186 22.0555C23.6595 22.4169 23.2325 22.7037 22.7622 22.8995C22.2919 23.0952 21.7875 23.196 21.278 23.196C20.7686 23.196 20.2642 23.0952 19.7939 22.8995C19.3235 22.7037 18.8966 22.4169 18.5375 22.0555L9.46812 12.9831ZM34.5448 14.425V27.859L27.8189 21.145L34.5448 14.425ZM8.02323 14.425L14.7432 21.142L8.02622 27.862L8.02323 14.425ZM26.377 22.5839L33.1059 29.3068H9.46812L16.1881 22.5869L17.0837 23.4825C18.1949 24.5858 19.6972 25.2049 21.2631 25.2049C22.829 25.2049 24.3314 24.5858 25.4426 23.4825L26.377 22.5839Z" fill="white"/>
<path d="M21.3705 0.895595C25.3855 0.895595 29.3103 2.08618 32.6487 4.31679C35.987 6.5474 38.5889 9.71785 40.1254 13.4272C41.6619 17.1366 42.0639 21.2183 41.2806 25.1561C40.4973 29.094 38.5639 32.7111 35.7249 35.5501C32.8859 38.3892 29.2687 40.3226 25.3309 41.1059C21.393 41.8891 17.3113 41.4871 13.602 39.9507C9.89261 38.4142 6.72215 35.8123 4.49154 32.4739C2.26093 29.1356 1.07035 25.2108 1.07035 21.1958C1.07588 15.8135 3.21642 10.6533 7.02224 6.84749C10.8281 3.04167 15.9883 0.901128 21.3705 0.895595ZM21.3705 0C17.1784 0 13.0804 1.24311 9.59478 3.57213C6.10916 5.90115 3.39244 9.21147 1.78818 13.0845C0.183928 16.9575 -0.235819 21.2193 0.582024 25.3308C1.39987 29.4424 3.41857 33.2191 6.38285 36.1834C9.34713 39.1477 13.1238 41.1664 17.2354 41.9842C21.347 42.8021 25.6088 42.3823 29.4818 40.7781C33.3548 39.1738 36.6651 36.4571 38.9941 32.9715C41.3232 29.4859 42.5663 25.3879 42.5663 21.1958C42.5663 15.5743 40.3332 10.1831 36.3582 6.20809C32.3832 2.23312 26.992 0 21.3705 0Z" fill="white"/>
</svg>
