<svg width="20" height="20" viewBox="0 0 20 20" fill="none" xmlns="http://www.w3.org/2000/svg">
<path fill-rule="evenodd" clip-rule="evenodd" d="M13.2698 13.5929V7.13972C13.2698 6.90988 13.0835 6.72356 12.8537 6.72356H6.40796V0.0623779H19.5076C19.7374 0.0623779 19.9237 0.248698 19.9237 0.478535V13.5929H13.2698Z" fill="black"/>
<path opacity="0.404989" fill-rule="evenodd" clip-rule="evenodd" d="M6.4079 0.0623779V6.72356H0.25593C0.141011 6.72356 0.0478516 6.6304 0.0478516 6.51548C0.0478516 6.46034 0.0697429 6.40745 0.108716 6.36843L6.4079 0.0623779Z" fill="black"/>
<path opacity="0.404989" fill-rule="evenodd" clip-rule="evenodd" d="M13.2697 19.7513V13.5928H19.9236L13.625 19.8983C13.5437 19.9796 13.412 19.9797 13.3307 19.8985C13.2916 19.8595 13.2697 19.8065 13.2697 19.7513Z" fill="black"/>
<path opacity="0.404989" fill-rule="evenodd" clip-rule="evenodd" d="M6.40796 6.72363H13.0617C13.1767 6.72363 13.2698 6.81679 13.2698 6.93171V13.593H6.82412C6.59428 13.593 6.40796 13.4067 6.40796 13.1768V6.72363Z" fill="black"/>
</svg>
