<svg width="100" height="113" viewBox="0 0 100 113" fill="none" xmlns="http://www.w3.org/2000/svg">
<path d="M0.777407 100.872C0.571226 100.872 0.373489 100.789 0.227697 100.642C0.0819051 100.494 0 100.294 0 100.086C0 99.8775 0.0819051 99.6776 0.227697 99.5302C0.373489 99.3828 0.571226 99.3 0.777407 99.3H9.4363C9.64249 99.3 9.84022 99.3828 9.98601 99.5302C10.1318 99.6776 10.2137 99.8775 10.2137 100.086C10.2137 100.294 10.1318 100.494 9.98601 100.642C9.84022 100.789 9.64249 100.872 9.4363 100.872H0.777407ZM5.11392 112.079C5.00245 112.081 4.89181 112.059 4.78861 112.017C4.68541 111.974 4.59177 111.911 4.51327 111.831C4.43477 111.751 4.37303 111.656 4.33173 111.551C4.29044 111.446 4.27043 111.334 4.27291 111.222V99.3H5.95635V111.227C5.95886 111.341 5.93864 111.453 5.89691 111.559C5.85518 111.664 5.7928 111.759 5.71354 111.839C5.63428 111.919 5.53979 111.982 5.43576 112.025C5.33173 112.067 5.22033 112.087 5.10827 112.085L5.11392 112.079Z" fill="white"/>
<path d="M12.9318 112.147C12.183 112.159 11.4468 111.951 10.8116 111.55C10.1845 111.152 9.67297 110.593 9.32887 109.93C8.96046 109.216 8.77437 108.42 8.78752 107.615C8.77509 106.801 8.97914 105.999 9.37835 105.292C9.76034 104.616 10.313 104.054 10.9798 103.665C11.6708 103.262 12.4566 103.056 13.2541 103.068C14.0358 103.054 14.8067 103.254 15.4859 103.645C16.165 104.036 16.7275 104.605 17.1143 105.292C17.5135 105.999 17.7175 106.801 17.7051 107.615H17.0747C17.0898 108.42 16.9051 109.216 16.5376 109.93C16.1938 110.593 15.6828 111.152 15.0562 111.55C14.4198 111.952 13.6821 112.159 12.9318 112.147ZM13.2555 110.674C13.7738 110.683 14.2842 110.545 14.7283 110.274C15.1593 110.008 15.5117 109.629 15.7488 109.178C16.0006 108.697 16.1285 108.16 16.1206 107.615C16.1296 107.066 16.0018 106.523 15.7488 106.037C15.5117 105.586 15.1593 105.207 14.7283 104.941C14.2826 104.678 13.7758 104.539 13.2597 104.539C12.7436 104.539 12.2368 104.678 11.7911 104.941C11.3555 105.206 10.9979 105.585 10.7551 106.037C10.4967 106.521 10.3658 107.065 10.3748 107.615C10.367 108.161 10.4979 108.699 10.7551 109.178C10.9979 109.63 11.3555 110.009 11.7911 110.274C12.233 110.543 12.7401 110.681 13.2555 110.674ZM16.881 112.103C16.7718 112.106 16.6632 112.086 16.5617 112.046C16.4602 112.005 16.3681 111.943 16.2908 111.865C16.2136 111.787 16.1529 111.694 16.1125 111.591C16.072 111.489 16.0526 111.379 16.0556 111.269V108.761L16.3637 107.027L17.7065 107.615V111.264C17.7094 111.375 17.6901 111.485 17.6496 111.587C17.6092 111.69 17.5485 111.783 17.4712 111.861C17.394 111.939 17.3018 112 17.2003 112.041C17.0989 112.082 16.9902 112.102 16.881 112.099V112.103Z" fill="white"/>
<path d="M20.7496 112.099C20.6404 112.102 20.5318 112.082 20.4303 112.041C20.3288 112 20.2366 111.939 20.1594 111.861C20.0822 111.783 20.0215 111.69 19.981 111.587C19.9406 111.485 19.9212 111.375 19.9241 111.264V103.968C19.9192 103.856 19.9375 103.744 19.9779 103.64C20.0183 103.535 20.0799 103.441 20.1588 103.362C20.2743 103.241 20.4233 103.159 20.5862 103.125C20.7491 103.092 20.9182 103.109 21.0712 103.174C21.2242 103.24 21.354 103.351 21.4434 103.492C21.5329 103.634 21.5778 103.8 21.5722 103.968V111.264C21.5757 111.374 21.5573 111.483 21.5182 111.586C21.4791 111.688 21.4201 111.781 21.3447 111.86C21.2673 111.94 21.1745 112.002 21.072 112.043C20.9696 112.084 20.8597 112.103 20.7496 112.099ZM27.4014 112.099C27.2922 112.102 27.1835 112.082 27.0821 112.041C26.9806 112 26.8884 111.939 26.8112 111.861C26.7339 111.783 26.6732 111.69 26.6328 111.587C26.5923 111.485 26.573 111.375 26.5759 111.264V107.24C26.5975 106.711 26.4805 106.186 26.2367 105.718C26.0252 105.34 25.7067 105.035 25.3222 104.842C24.9097 104.646 24.4579 104.548 24.002 104.556C23.5763 104.55 23.1552 104.645 22.7723 104.833C22.4239 105.004 22.1236 105.26 21.8987 105.578C21.682 105.892 21.5687 106.267 21.5751 106.649H20.5545C20.544 106.001 20.7155 105.363 21.0493 104.809C21.3791 104.267 21.8454 103.823 22.4005 103.523C22.9919 103.202 23.6545 103.039 24.3257 103.049C25.0215 103.037 25.709 103.203 26.3243 103.532C26.9155 103.856 27.3996 104.348 27.7166 104.948C28.0567 105.57 28.2268 106.332 28.2268 107.234V111.259C28.2298 111.369 28.2104 111.479 28.1699 111.581C28.1295 111.684 28.0688 111.777 27.9916 111.855C27.9143 111.933 27.8222 111.995 27.7207 112.036C27.6192 112.076 27.5106 112.096 27.4014 112.093V112.099Z" fill="white"/>
<path d="M30.347 104.872C30.1456 104.881 29.9487 104.811 29.7972 104.676C29.7289 104.615 29.6747 104.539 29.6383 104.454C29.602 104.369 29.5843 104.277 29.5866 104.185C29.5823 104.088 29.5989 103.99 29.6353 103.9C29.6716 103.81 29.7269 103.729 29.7972 103.662C29.9483 103.527 30.1456 103.457 30.347 103.466H34.0857C34.2871 103.457 34.4843 103.527 34.6355 103.662C34.7056 103.729 34.7607 103.81 34.797 103.9C34.8334 103.991 34.8501 104.088 34.8461 104.185C34.848 104.277 34.8302 104.369 34.7938 104.454C34.7575 104.539 34.7035 104.615 34.6355 104.676C34.484 104.811 34.287 104.881 34.0857 104.872H30.347ZM33.9401 112.087C33.4245 112.095 32.9181 111.95 32.4828 111.67C32.0486 111.388 31.6969 110.993 31.4637 110.527C31.2118 110.026 31.0856 109.47 31.0962 108.908V101.104C31.0916 100.994 31.1092 100.884 31.1478 100.781C31.1864 100.678 31.2453 100.583 31.3208 100.504C31.3964 100.424 31.4872 100.361 31.5876 100.317C31.6881 100.274 31.7962 100.252 31.9054 100.252C32.0146 100.252 32.1227 100.274 32.2231 100.317C32.3236 100.361 32.4143 100.424 32.4899 100.504C32.5655 100.583 32.6244 100.678 32.663 100.781C32.7016 100.884 32.7192 100.994 32.7146 101.104V108.908C32.7015 109.305 32.8277 109.693 33.0708 110.004C33.1721 110.142 33.304 110.253 33.4557 110.33C33.6074 110.407 33.7747 110.446 33.9443 110.446H34.4885C34.5825 110.445 34.6755 110.465 34.7609 110.505C34.8464 110.544 34.9223 110.602 34.9832 110.674C35.1216 110.838 35.1937 111.049 35.1853 111.264C35.1881 111.377 35.1654 111.488 35.1191 111.59C35.0728 111.692 35.0041 111.782 34.9182 111.853C34.7239 112.012 34.4792 112.093 34.2298 112.082L33.9401 112.087Z" fill="white"/>
<path d="M41.132 112.147C40.3001 112.163 39.4781 111.963 38.7446 111.566C38.0641 111.194 37.4983 110.639 37.1092 109.963C36.7071 109.248 36.503 108.437 36.5184 107.615C36.5032 106.791 36.6979 105.977 37.0838 105.251C37.4425 104.582 37.9772 104.028 38.6287 103.648C39.3176 103.253 40.0986 103.053 40.8903 103.068C41.6523 103.048 42.4043 103.246 43.0599 103.639C43.66 104.011 44.1406 104.551 44.4437 105.194C44.7739 105.909 44.9368 106.691 44.9201 107.48C44.9228 107.576 44.9056 107.671 44.8695 107.76C44.8335 107.849 44.7794 107.929 44.7109 107.995C44.6395 108.063 44.5556 108.116 44.4639 108.151C44.3722 108.186 44.2746 108.203 44.1766 108.2H37.6464V106.891H44.12L43.4571 107.348C43.4563 106.838 43.3459 106.335 43.1334 105.872C42.9385 105.439 42.6202 105.075 42.2194 104.826C41.8186 104.577 41.3534 104.454 40.8832 104.473C40.3297 104.457 39.7829 104.6 39.3058 104.883C38.8754 105.152 38.5316 105.541 38.3163 106.004C38.0826 106.508 37.9661 107.059 37.9757 107.615C37.9656 108.177 38.1052 108.73 38.3799 109.218C38.6467 109.684 39.0324 110.068 39.4966 110.331C39.9967 110.61 40.5608 110.751 41.132 110.74C41.4826 110.737 41.8302 110.673 42.1596 110.551C42.4618 110.452 42.7477 110.308 43.0076 110.123C43.1593 110.005 43.3436 109.937 43.5349 109.93C43.7152 109.923 43.8916 109.984 44.0296 110.101C44.1116 110.167 44.1797 110.249 44.2297 110.341C44.2798 110.434 44.3107 110.536 44.3207 110.641C44.3243 110.741 44.3023 110.84 44.257 110.929C44.2117 111.018 44.1446 111.094 44.0621 111.149C43.6499 111.464 43.1871 111.706 42.6938 111.863C42.192 112.043 41.6644 112.139 41.132 112.147Z" fill="white"/>
<path d="M57.104 112.246C56.2752 112.252 55.4539 112.087 54.6899 111.762C53.926 111.437 53.2354 110.959 52.6601 110.356C52.0889 109.753 51.6383 109.045 51.3328 108.27C51.0101 107.447 50.8483 106.57 50.8565 105.685C50.8488 104.808 51.0107 103.939 51.3328 103.125C51.6394 102.353 52.09 101.647 52.6601 101.047C53.223 100.455 53.8952 99.9795 54.6389 99.6484C55.4159 99.3052 56.2561 99.1323 57.104 99.1412C57.8321 99.1249 58.5574 99.2355 59.2482 99.4684C59.9064 99.7213 60.5169 100.086 61.0532 100.547C61.1305 100.604 61.1987 100.673 61.2554 100.751C61.3003 100.816 61.3329 100.888 61.3515 100.964C61.3697 101.048 61.3783 101.133 61.3769 101.219C61.3787 101.316 61.3602 101.414 61.3224 101.504C61.2847 101.594 61.2286 101.675 61.1578 101.742C61.0146 101.883 60.8238 101.965 60.6235 101.97C60.4069 101.98 60.1951 101.904 60.0327 101.759C59.6639 101.428 59.2461 101.157 58.7945 100.957C58.3695 100.767 57.8042 100.671 57.0984 100.671C56.4783 100.668 55.8651 100.802 55.3018 101.064C54.7434 101.328 54.2413 101.699 53.8234 102.157C53.3956 102.62 53.0597 103.162 52.8339 103.753C52.359 105.007 52.359 106.393 52.8339 107.647C53.0597 108.238 53.3956 108.78 53.8234 109.243C54.2425 109.695 54.7459 110.059 55.3047 110.314C56.3682 110.791 57.5743 110.825 58.6631 110.411C59.1677 110.213 59.6432 109.946 60.0765 109.618C60.2393 109.487 60.4438 109.42 60.6518 109.43C60.8339 109.443 61.0043 109.526 61.1296 109.66C61.2654 109.815 61.335 110.018 61.3232 110.224C61.3235 110.333 61.3044 110.441 61.2667 110.543C61.2239 110.654 61.1544 110.752 61.0645 110.829C60.5132 111.297 59.8825 111.66 59.203 111.9C58.5274 112.133 57.8179 112.25 57.104 112.246ZM61.3275 110.217L59.709 109.89V106.961H57.4758C57.2568 106.967 57.0433 106.891 56.8765 106.748C56.7998 106.681 56.7384 106.598 56.6962 106.505C56.6541 106.412 56.6323 106.31 56.6323 106.208C56.6323 106.105 56.6541 106.004 56.6962 105.911C56.7384 105.818 56.7998 105.735 56.8765 105.668C57.0435 105.525 57.257 105.45 57.4758 105.456H60.4963C60.6071 105.451 60.7176 105.47 60.8209 105.511C60.9241 105.552 61.0177 105.614 61.0956 105.694C61.1719 105.775 61.2312 105.872 61.2701 105.977C61.3089 106.082 61.3265 106.194 61.3218 106.307L61.3275 110.217Z" fill="white"/>
<path d="M67.1198 112.147C66.2894 112.162 65.469 111.962 64.7367 111.566C64.0559 111.194 63.49 110.639 63.1013 109.963C62.6988 109.248 62.4947 108.437 62.5105 107.615C62.4939 106.792 62.6861 105.978 63.0688 105.251C63.4285 104.583 63.9636 104.028 64.6152 103.648C65.304 103.253 66.0851 103.053 66.8767 103.068C67.6383 103.048 68.3899 103.246 69.045 103.639C69.6457 104.01 70.1265 104.551 70.4288 105.194C70.7594 105.908 70.9229 106.691 70.9065 107.48C70.909 107.576 70.8915 107.671 70.8552 107.76C70.8189 107.849 70.7647 107.929 70.6959 107.995C70.6247 108.063 70.5408 108.117 70.449 108.152C70.3573 108.187 70.2596 108.203 70.1616 108.2H63.6399V106.891H70.1079L69.4436 107.348C69.445 106.839 69.337 106.335 69.127 105.872C68.9334 105.457 68.6308 105.104 68.252 104.851C67.8408 104.59 67.362 104.458 66.8767 104.473C66.3242 104.458 65.7786 104.6 65.3021 104.883C64.8717 105.152 64.528 105.541 64.3127 106.004C64.0801 106.508 63.9641 107.059 63.9735 107.615C63.9634 108.177 64.103 108.73 64.3777 109.218C64.6445 109.684 65.0302 110.068 65.4943 110.331C65.9945 110.61 66.5586 110.751 67.1297 110.74C67.4804 110.737 67.828 110.673 68.1573 110.551C68.4596 110.452 68.7454 110.308 69.0054 110.123C69.157 110.006 69.3408 109.94 69.5312 109.934C69.7111 109.927 69.8872 109.988 70.0245 110.106C70.107 110.171 70.1755 110.252 70.2255 110.345C70.2756 110.438 70.3063 110.54 70.3157 110.646C70.3203 110.746 70.2989 110.845 70.2535 110.934C70.2081 111.023 70.1403 111.099 70.057 111.153C69.6456 111.469 69.1832 111.711 68.6902 111.867C68.1854 112.047 67.6549 112.141 67.1198 112.147Z" fill="white"/>
<path d="M73.5766 112.082C73.3585 112.096 73.1436 112.022 72.9787 111.877C72.9037 111.796 72.8462 111.699 72.8099 111.593C72.7737 111.488 72.7595 111.376 72.7681 111.264V103.951C72.756 103.84 72.7686 103.729 72.805 103.624C72.8413 103.519 72.9005 103.424 72.9781 103.345C73.0557 103.267 73.1498 103.207 73.2534 103.17C73.3569 103.133 73.4674 103.12 73.5766 103.132C73.6866 103.116 73.7987 103.127 73.9041 103.162C74.0094 103.198 74.1052 103.258 74.1837 103.337C74.2622 103.416 74.3215 103.513 74.3567 103.62C74.3919 103.726 74.4021 103.839 74.3865 103.951V111.264C74.4006 111.485 74.3279 111.702 74.1844 111.869C74.1031 111.945 74.0071 112.003 73.9025 112.039C73.7979 112.076 73.687 112.09 73.5766 112.082ZM73.5611 106.487C73.5516 105.867 73.7173 105.257 74.0388 104.729C74.3552 104.212 74.7982 103.787 75.3251 103.493C75.8695 103.188 76.4832 103.03 77.1061 103.036C77.7534 103.036 78.2359 103.142 78.5535 103.355C78.8715 103.568 78.993 103.821 78.9181 104.116C78.8952 104.251 78.8298 104.374 78.7316 104.468C78.6427 104.548 78.5336 104.601 78.4163 104.622C78.2871 104.644 78.1547 104.639 78.0276 104.606C77.416 104.466 76.7822 104.454 76.1661 104.574C75.676 104.662 75.223 104.896 74.8643 105.245C74.7057 105.409 74.5816 105.603 74.4995 105.817C74.4174 106.031 74.3789 106.259 74.3865 106.488L73.5611 106.487Z" fill="white"/>
<path d="M83.7579 112.147C82.9739 112.161 82.2005 111.962 81.5185 111.571C80.8366 111.179 80.271 110.61 79.8808 109.923C79.4841 109.215 79.2821 108.413 79.2956 107.6C79.2822 106.794 79.4688 105.998 79.8384 105.284C80.1822 104.621 80.6932 104.063 81.3197 103.665C81.9547 103.263 82.691 103.056 83.4399 103.068C84.0378 103.062 84.6292 103.193 85.17 103.451C85.7108 103.709 86.1872 104.087 86.5636 104.556V100.139C86.5587 100.027 86.577 99.9148 86.6174 99.8105C86.6578 99.7061 86.7194 99.6115 86.7983 99.5327C86.962 99.3856 87.1735 99.3043 87.3926 99.3043C87.6117 99.3043 87.8232 99.3856 87.987 99.5327C88.0637 99.6127 88.1235 99.7077 88.1626 99.8119C88.2017 99.9161 88.2194 100.027 88.2146 100.139V107.6C88.2264 108.413 88.0224 109.216 87.6237 109.923C87.237 110.61 86.6745 111.179 85.9953 111.57C85.3162 111.961 84.5453 112.161 83.7636 112.147H83.7579ZM83.7579 110.674C84.2762 110.683 84.7866 110.544 85.2307 110.274C85.6627 110.006 86.0148 109.624 86.2499 109.17C86.5024 108.686 86.6307 108.145 86.623 107.598C86.6331 107.051 86.5047 106.51 86.2499 106.027C86.0111 105.579 85.6595 105.204 85.2307 104.939C84.7848 104.676 84.2777 104.538 83.7614 104.538C83.2451 104.538 82.7381 104.676 82.2921 104.939C81.8586 105.203 81.5017 105.578 81.2575 106.027C80.9977 106.508 80.8667 107.05 80.8773 107.598C80.8692 108.146 81.0001 108.687 81.2575 109.17C81.4979 109.625 81.8553 110.007 82.2921 110.274C82.7346 110.542 83.2421 110.681 83.7579 110.674Z" fill="white"/>
<path d="M94.5693 112.147C93.8204 112.159 93.0841 111.952 92.4491 111.55C91.8225 111.152 91.3115 110.593 90.9678 109.93C90.5982 109.216 90.4116 108.421 90.425 107.615C90.4126 106.801 90.6166 105.999 91.0158 105.292C91.3987 104.616 91.9517 104.055 92.6187 103.665C93.1264 103.361 93.6886 103.163 94.2727 103.081C94.8568 102.998 95.4513 103.034 96.0217 103.185C96.5921 103.336 97.1272 103.601 97.5961 103.962C98.0649 104.324 98.4582 104.776 98.7531 105.292C99.1517 105.999 99.3558 106.801 99.344 107.615H98.7121C98.7255 108.421 98.5389 109.216 98.1694 109.93C97.8262 110.593 97.3156 111.152 96.6895 111.55C96.0543 111.951 95.3181 112.159 94.5693 112.147ZM94.8929 110.674C95.4113 110.683 95.9216 110.544 96.3658 110.274C96.7962 110.008 97.1481 109.629 97.3849 109.178C97.6374 108.697 97.7652 108.16 97.7566 107.615C97.7673 107.066 97.6404 106.523 97.3877 106.037C97.1509 105.586 96.799 105.207 96.3686 104.941C95.9226 104.678 95.4156 104.539 94.8993 104.539C94.383 104.539 93.876 104.678 93.43 104.941C92.9948 105.206 92.6377 105.585 92.3954 106.037C92.1369 106.521 92.0064 107.065 92.0166 107.615C92.0085 108.161 92.14 108.699 92.3982 109.178C92.6405 109.63 92.9977 110.009 93.4328 110.274C93.8736 110.541 94.379 110.68 94.8929 110.674ZM98.5185 112.103C98.4093 112.106 98.3006 112.086 98.1992 112.046C98.0977 112.005 98.0055 111.943 97.9283 111.865C97.8511 111.787 97.7904 111.694 97.7499 111.591C97.7095 111.489 97.6901 111.379 97.693 111.269V108.761L97.9998 107.027L99.344 107.615V111.264C99.3469 111.375 99.3275 111.485 99.2871 111.587C99.2466 111.69 99.1859 111.783 99.1087 111.861C99.0314 111.939 98.9393 112 98.8378 112.041C98.7363 112.082 98.6277 112.102 98.5185 112.099V112.103Z" fill="white"/>
<path d="M69.2869 85.8466C68.6395 86.3704 67.9822 86.8662 67.3151 87.3339C72.2947 88.5412 73.4213 89.86 73.4213 90.2872C73.4213 90.7372 72.1661 92.186 66.4416 93.4434C61.5213 94.5235 54.9614 95.1193 47.9774 95.1193C40.9935 95.1193 34.4322 94.5235 29.5077 93.4419C23.7845 92.1846 22.5322 90.7358 22.5322 90.2858C22.5322 89.8814 23.5414 88.6712 27.9034 87.5168C27.2381 87.0586 26.5841 86.5738 25.9415 86.0623C22.364 87.191 20.6169 88.5841 20.6169 90.2858C20.6169 92.4289 23.3944 94.0834 29.1062 95.3379C34.158 96.4466 40.862 97.0524 47.9817 97.0524C55.1013 97.0524 61.804 96.4409 66.8557 95.3379C72.5633 94.0849 75.3379 92.4318 75.3379 90.2872C75.3379 88.4726 73.3591 87.0124 69.2869 85.8466Z" fill="white"/>
<path d="M79.1147 58.9756C78.8892 58.7231 78.6138 58.5212 78.3063 58.3832C77.9988 58.2451 77.666 58.1738 77.3295 58.174H77.304C75.916 58.1897 74.5138 58.2212 73.1088 58.2669L73.1385 60.2072C74.5416 60.1586 75.9367 60.1276 77.3238 60.1143C77.3925 60.113 77.4607 60.1268 77.5236 60.1547C77.5866 60.1825 77.6428 60.2238 77.6885 60.2757C77.7372 60.3311 77.7738 60.3963 77.7957 60.467C77.8176 60.5377 77.8244 60.6122 77.8157 60.6858C76.0446 76.2052 62.3806 89.317 47.976 89.317C32.6682 89.317 19.8381 76.9967 18.1264 60.6601C18.1194 60.5912 18.1269 60.5217 18.1483 60.4559C18.1697 60.3902 18.2047 60.3298 18.2508 60.2786C18.2981 60.2263 18.3555 60.1844 18.4194 60.1554C18.4833 60.1264 18.5525 60.111 18.6225 60.11C19.8028 60.1243 20.9901 60.15 22.1732 60.1857L22.1986 58.244C21.0151 58.2088 19.8292 58.184 18.6409 58.1697C18.3217 58.1675 18.0051 58.2291 17.7095 58.351C17.4138 58.4729 17.145 58.6527 16.9184 58.88C16.6917 59.1073 16.5118 59.3777 16.389 59.6756C16.2662 59.9735 16.2029 60.2931 16.2027 60.6158C16.2021 60.6988 16.2063 60.7819 16.2154 60.8644C17.0918 69.2313 20.7625 76.9195 26.5507 82.5046C32.3939 88.1554 40.0012 91.2573 47.976 91.2573C55.4207 91.2573 62.8796 88.0125 68.9787 82.1274C74.9237 76.3823 78.8405 68.6498 79.7211 60.9101C79.7617 60.5626 79.7287 60.2104 79.6241 59.8768C79.5196 59.5432 79.3459 59.236 79.1147 58.9756Z" fill="white"/>
<path d="M86.623 67.1653C86.623 74.3606 81.9289 74.7878 78.1592 75.1308C77.3436 75.205 76.5464 75.2736 75.8142 75.4094C76.258 74.7131 76.6769 74.0058 77.0708 73.2876C77.3747 73.2548 77.6828 73.2262 77.9867 73.2005C81.7395 72.8576 84.7021 72.5861 84.7021 67.1653C84.7021 66.6024 84.4533 66.068 84.1367 65.8352C83.584 65.4237 82.131 65.6323 80.0758 66.2638C80.3034 65.5351 80.5083 64.805 80.6836 64.0678C82.8829 63.4591 84.3897 63.3005 85.4555 64.0935C86.2413 64.6678 86.623 65.6737 86.623 67.1653Z" fill="white"/>
<path d="M47.5616 76.0565C41.6251 76.0565 37.2108 73.6605 37.0737 73.5862C39.9332 76.348 43.6577 77.9882 47.5645 77.9882C51.2126 77.9882 54.8664 76.468 57.8545 73.5819C57.8545 73.5819 53.5929 76.0565 47.5616 76.0565Z" fill="white"/>
<path d="M51.7627 59.2056C50.5019 59.237 48.834 59.2542 47.5901 59.2542C46.1244 59.2542 45.0699 59.2313 43.6041 59.1927L43.5745 61.133C45.0501 61.1716 46.1187 61.1945 47.5901 61.1945C48.8439 61.1945 50.5217 61.1773 51.7924 61.1487L51.7627 59.2056Z" fill="white"/>
<path d="M71.4833 57.8883C71.485 56.9761 71.1452 56.0971 70.532 55.4279C70.2077 55.08 69.8149 54.8046 69.3789 54.6195C68.9429 54.4344 68.4733 54.3438 68.0005 54.3535L56.7196 54.5221C56.2468 54.5269 55.7801 54.631 55.3492 54.8277C54.9182 55.0245 54.5325 55.3096 54.2164 55.6651C53.6256 56.3575 53.3129 57.2486 53.34 58.1626L53.3881 61.4773C53.4018 62.3888 53.7695 63.2584 54.4118 63.8983C55.0541 64.5382 55.9195 64.8972 56.8214 64.8978H56.8723L68.1531 64.7235C69.062 64.7088 69.928 64.3304 70.5613 63.6713C71.1946 63.0121 71.5434 62.1261 71.5313 61.2073L71.4833 57.8883ZM68.0825 62.789L56.8426 62.9576C56.4431 62.9592 56.0589 62.8026 55.7723 62.5214C55.4856 62.2402 55.3193 61.8567 55.309 61.4531L55.2666 58.0083C55.2625 57.7464 55.3254 57.4879 55.4492 57.2579C55.5731 57.0278 55.7536 56.834 55.9733 56.6952C56.2281 56.5369 56.5223 56.4551 56.8214 56.4595L68.0316 56.2938H68.0443C68.2542 56.2863 68.463 56.3274 68.6549 56.4138C68.9205 56.5328 69.147 56.7261 69.3075 56.9709C69.468 57.2157 69.556 57.5017 69.561 57.7954L69.6118 61.1973C69.6171 61.6132 69.4591 62.0142 69.1725 62.3125C68.8858 62.6109 68.4939 62.7822 68.0825 62.789Z" fill="white"/>
<path d="M41.0937 55.6565C40.7777 55.3009 40.392 55.0156 39.961 54.8188C39.5301 54.622 39.0633 54.518 38.5904 54.5135L27.3096 54.3449C26.8373 54.3365 26.3685 54.4273 25.9327 54.6115C25.497 54.7957 25.1038 55.0693 24.7781 55.415C24.1651 56.0877 23.8259 56.9694 23.8282 57.884L23.7801 61.163C23.7736 61.6236 23.8569 62.0811 24.0253 62.5092C24.1936 62.9373 24.4438 63.3277 24.7614 63.658C25.0791 63.9884 25.458 64.2523 25.8765 64.4346C26.295 64.6169 26.745 64.7141 27.2007 64.7207L38.4463 64.885H38.4972C38.9645 64.8858 39.427 64.7894 39.8559 64.6019C40.2849 64.4143 40.6711 64.1396 40.9905 63.7948C41.594 63.1242 41.9273 62.2496 41.9248 61.343L41.9729 58.154C42 57.2395 41.6862 56.3481 41.0937 55.6565ZM40.0011 61.4045C40.002 61.6257 39.9573 61.8447 39.8696 62.0474C39.7471 62.3181 39.5493 62.547 39.3003 62.706C39.0513 62.8651 38.762 62.9475 38.4675 62.9433L27.1852 62.7761C26.7854 62.7697 26.4045 62.6034 26.1258 62.3136C25.847 62.0239 25.6933 61.6343 25.6982 61.2302L25.7491 57.7854C25.7515 57.5846 25.7932 57.3863 25.8718 57.2019C25.9504 57.0175 26.0644 56.8506 26.2071 56.7109C26.495 56.4319 26.8796 56.2781 27.2785 56.2823L38.5636 56.4509C38.8212 56.4549 39.0735 56.5257 39.2962 56.6565C39.519 56.7874 39.7047 56.9739 39.8357 57.1982C39.983 57.4587 40.0554 57.7556 40.0449 58.0554L40.0011 61.4045Z" fill="white"/>
<path d="M65.7263 49.6957L65.2019 51.4103L65.1652 51.3974H65.1609L65.0436 51.3574H65.0267C62.1659 50.4188 59.3558 49.3291 56.6081 48.0927H56.601H56.5939C54.6886 47.2354 52.7041 46.2353 50.6941 45.1322L50.615 45.0894L50.581 45.0708L50.5047 45.0279L50.4764 45.0122C47.9181 43.5963 45.4289 42.0589 43.0755 40.4401C42.7476 40.2144 42.4206 39.9858 42.0946 39.7543C41.8411 39.5762 41.5886 39.3957 41.337 39.2128C40.0027 38.247 38.6825 37.234 37.3976 36.1895C37.2195 36.0448 37.0424 35.899 36.8662 35.7523C36.395 35.3637 35.9239 34.9679 35.4527 34.565C34.271 33.5492 33.1078 32.4962 31.977 31.4217C31.47 30.9378 30.9645 30.4454 30.4603 29.9444C30.0335 29.5205 29.6094 29.0919 29.1882 28.6585C28.5757 28.0203 27.9703 27.3735 27.3719 26.7182C27.1698 26.4982 26.9677 26.2767 26.7684 26.0538C26.5691 25.8309 26.3669 25.6066 26.169 25.3823L26.145 25.3551L26.7669 24.7936L26.8093 24.7551L27.4652 24.1621C27.6603 24.3836 27.8581 24.6036 28.0546 24.8236L28.0928 24.8651C28.1635 24.9436 28.2341 25.0208 28.3048 25.098C28.3373 25.1365 28.3712 25.1737 28.4066 25.2108C28.4179 25.2251 28.4306 25.238 28.4419 25.2508L28.4631 25.2737L28.6596 25.488C30.131 27.094 31.6519 28.6456 33.194 30.1144C34.9071 31.7446 36.6937 33.3191 38.5044 34.7922C39.9857 35.9952 41.5108 37.154 43.0529 38.247C43.3903 38.487 43.7285 38.7251 44.0678 38.9614C46.3802 40.5502 48.8269 42.0589 51.3401 43.4506L51.3613 43.462L51.3839 43.4749L51.4249 43.4977L51.4418 43.5077L51.4602 43.5177L51.5238 43.552H51.5323C53.497 44.6336 55.4349 45.6066 57.2936 46.4439L57.3148 46.4539L57.3303 46.461C60.0592 47.6891 62.851 48.7689 65.6938 49.6957H65.7263Z" fill="white"/>
<path d="M65.7263 49.6957L65.2019 51.4103L65.1652 51.3974H65.1609L65.0436 51.3574H65.0267C62.1659 50.4188 59.3558 49.3291 56.6081 48.0927H56.601H56.5939C54.6886 47.2354 52.7041 46.2353 50.6941 45.1322L50.615 45.0894L50.581 45.0708L50.5047 45.0279L50.4764 45.0122C47.9181 43.5963 45.4289 42.0589 43.0755 40.4401C42.7476 40.2144 42.4206 39.9858 42.0946 39.7543C41.8411 39.5762 41.5886 39.3957 41.337 39.2128C40.0027 38.247 38.6825 37.234 37.3976 36.1895C37.2195 36.0448 37.0424 35.899 36.8662 35.7523C36.395 35.3637 35.9239 34.9679 35.4527 34.565C34.271 33.5492 33.1078 32.4962 31.977 31.4217C31.47 30.9378 30.9645 30.4454 30.4603 29.9444C30.0335 29.5205 29.6094 29.0919 29.1882 28.6585C28.5757 28.0203 27.9703 27.3735 27.3719 26.7182C27.1698 26.4982 26.9677 26.2767 26.7684 26.0538C26.5691 25.8309 26.3669 25.6066 26.169 25.3823L26.145 25.3551L26.7669 24.7936L26.8093 24.7551L27.4652 24.1621C27.6603 24.3836 27.8581 24.6036 28.0546 24.8236L28.0928 24.8651C28.1635 24.9436 28.2341 25.0208 28.3048 25.098C28.3373 25.1365 28.3712 25.1737 28.4066 25.2108C28.4179 25.2251 28.4306 25.238 28.4419 25.2508L28.4631 25.2737L28.6596 25.488C30.131 27.094 31.6519 28.6456 33.194 30.1144C34.9071 31.7446 36.6937 33.3191 38.5044 34.7922C39.9857 35.9952 41.5108 37.154 43.0529 38.247C43.3903 38.487 43.7285 38.7251 44.0678 38.9614C46.3802 40.5502 48.8269 42.0589 51.3401 43.4506L51.3613 43.462L51.3839 43.4749L51.4249 43.4977L51.4418 43.5077L51.4602 43.5177L51.5238 43.552H51.5323C53.497 44.6336 55.4349 45.6066 57.2936 46.4439L57.3148 46.4539L57.3303 46.461C60.0592 47.6891 62.851 48.7689 65.6938 49.6957H65.7263Z" fill="white"/>
<path d="M79.3677 45.0409L79.1656 45.9096V45.9353L78.9663 46.7925L78.3429 46.6425C78.0357 46.5663 77.729 46.4892 77.4228 46.4111C73.0202 45.2799 68.7179 43.7817 64.5602 41.9319C60.0595 39.9057 55.7392 37.4927 51.6468 34.7194C48.4242 32.526 45.3544 30.1114 42.4593 27.4927C40.0848 25.3496 37.823 23.0824 35.6831 20.7003L35.3368 20.3074L35.0541 20.003C34.8996 19.8287 34.7464 19.6539 34.5947 19.4787L35.235 18.9072L35.2647 18.88L35.9333 18.2856L35.9432 18.2956L36.1114 18.4885L36.1199 18.4985C36.329 18.7371 36.5439 18.9729 36.7474 19.2129L36.7616 19.2286L36.8153 19.2886L37.0655 19.5673C37.1715 19.6844 37.2775 19.803 37.3849 19.9202C39.3091 22.0319 41.3059 24.0288 43.3752 25.911C44.3109 26.7626 45.2617 27.5898 46.2276 28.3928C48.3006 30.1216 50.4359 31.7309 52.6334 33.2206C56.64 35.9388 60.87 38.3045 65.2769 40.2916C69.1205 42.0009 73.0903 43.4044 77.15 44.4894C77.4638 44.5722 77.7775 44.6551 78.0928 44.7337C78.408 44.8123 78.7161 44.8909 79.0285 44.9666H79.0398L79.3677 45.0409Z" fill="white"/>
<path d="M76.8262 35.148L76.5167 36.0052L76.2085 36.8453L75.8438 36.7025C75.4537 36.5596 75.0622 36.401 74.6735 36.2467C73.6572 35.8423 72.648 35.418 71.6586 34.9765C67.1589 32.9475 62.84 30.5316 58.7494 27.7555C57.7797 27.0982 56.82 26.4162 55.8701 25.7095C55.3651 25.3351 54.8633 24.9541 54.3648 24.5665C51.6688 22.4639 49.0957 20.205 46.6586 17.8012C46.3759 17.5155 46.0932 17.2297 45.8105 16.9439L45.5137 16.6582L46.1469 16.0252L46.7816 15.3909C46.97 15.588 47.1637 15.7833 47.3625 15.9767C47.6636 16.2796 47.9689 16.5796 48.2742 16.8782C48.5795 17.1768 48.9244 17.5055 49.2523 17.8155C51.3454 19.7945 53.5357 21.6657 55.815 23.422C56.2984 23.7944 56.7851 24.1607 57.2751 24.5207C58.0893 25.1189 58.911 25.6999 59.7402 26.2638C63.7422 28.9804 67.9675 31.3446 72.3695 33.3306C72.7229 33.4891 73.0763 33.6435 73.4381 33.7978C73.8688 33.9826 74.3022 34.1631 74.7385 34.3393C75.1498 34.5064 75.564 34.6707 75.9767 34.8322C76.2665 34.9422 76.5463 35.0479 76.8262 35.148Z" fill="white"/>
<path d="M16.5222 46.5897L15.9568 44.8751C19.4131 43.704 22.7738 42.2618 26.008 40.5617C29.641 38.6477 33.1008 36.415 36.3475 33.8893L37.4358 35.3181C34.1073 37.9084 30.56 40.198 26.8348 42.1605C23.5165 43.9059 20.0685 45.3868 16.5222 46.5897Z" fill="white"/>
<path d="M19.2629 36.9482L18.47 35.3322C18.829 35.1522 19.2106 34.9565 19.6007 34.7493C23.2538 32.8242 26.7317 30.5771 29.994 28.0341L31.0837 29.4628C27.7386 32.0705 24.1723 34.3746 20.4262 36.3481C20.0248 36.5624 19.6318 36.7639 19.2629 36.9482Z" fill="white"/>
<path d="M78.1648 37.7297C76.5346 33.1936 74.0149 29.0371 70.7568 25.5094C67.9987 22.5039 64.7196 20.0343 61.0816 18.2226C60.8169 18.0912 60.5511 17.964 60.2844 17.8412C60.0018 17.7116 59.7191 17.5859 59.4364 17.464C55.6985 15.856 51.6734 15.0423 47.6113 15.0736C43.5274 15.114 39.4948 15.9975 35.7608 17.6697C35.488 17.7897 35.2152 17.9155 34.9438 18.044C34.6724 18.1726 34.3954 18.3112 34.1226 18.4498C30.49 20.3206 27.2203 22.8373 24.47 25.8794C21.2823 29.3772 18.8107 33.4779 17.1977 37.9454C15.506 42.6036 14.8178 47.5732 15.1793 52.5218C15.2144 53.0411 15.4432 53.5276 15.8194 53.8829C16.1956 54.2383 16.6913 54.4361 17.2062 54.4363C17.3598 54.4363 17.5129 54.419 17.6628 54.3849C22.1731 53.3319 26.5478 51.6002 32.2907 48.5927C36.9467 46.1552 40.7164 43.2262 43.4812 40.9487C43.5218 40.914 43.5726 40.8937 43.6258 40.8911C43.6789 40.8885 43.7314 40.9038 43.7752 40.9344C45.754 42.2946 48.041 43.682 50.4764 45.0164L50.5047 45.0322C52.4595 46.1023 54.5133 47.1367 56.5939 48.0969H56.601H56.608C59.3479 49.3525 62.159 50.4427 65.0266 51.3616H65.0436L65.1242 51.3888L65.2061 51.4145C66.1051 51.7002 67.0154 51.975 67.937 52.2389C71.1888 53.1564 74.4863 53.8994 77.8157 54.4649C77.9269 54.4837 78.0394 54.4933 78.1521 54.4935C78.6643 54.494 79.1578 54.2989 79.5339 53.9474C79.91 53.5958 80.1409 53.1137 80.1804 52.5975C80.5677 47.5529 79.8804 42.483 78.1648 37.7297ZM78.4037 52.4661C78.4013 52.5 78.3917 52.5329 78.3756 52.5628C78.3595 52.5926 78.3373 52.6186 78.3104 52.639C78.2833 52.661 78.2519 52.6768 78.2183 52.6855C78.1846 52.6941 78.1495 52.6953 78.1153 52.689C73.9219 51.9851 69.7822 50.9863 65.7263 49.7C62.868 48.7887 60.0666 47.7042 57.3374 46.4524L57.3218 46.4452L57.3006 46.4352C55.302 45.5122 53.3288 44.5192 51.4489 43.4948L51.3909 43.4619L51.3683 43.4491L51.3471 43.4376C48.9541 42.1289 46.7166 40.7687 44.7731 39.4371C44.4105 39.1905 43.9792 39.068 43.5426 39.0875C43.106 39.1071 42.6872 39.2677 42.3476 39.5457L42.0903 39.7571C39.4188 41.9489 35.8343 44.6993 31.4653 46.9867C25.8623 49.92 21.6134 51.6059 17.2571 52.6218C17.2226 52.6303 17.1867 52.6308 17.1519 52.6234C17.1172 52.616 17.0845 52.6008 17.0564 52.5789C17.0269 52.5571 17.0026 52.5291 16.985 52.4968C16.9674 52.4644 16.957 52.4286 16.9546 52.3918C16.8107 50.3961 16.8467 48.3914 17.062 46.4024C17.1355 45.7299 17.2298 45.0593 17.3447 44.3906C17.7892 41.7802 18.5349 39.2315 19.5667 36.7967C19.9587 35.8699 20.3917 34.9607 20.8657 34.0692C22.206 31.5464 23.8553 29.2043 25.7747 27.0982C26.0997 26.7429 26.4296 26.3962 26.7641 26.058C27.1872 25.6304 27.6197 25.2174 28.0616 24.8193C30.0881 22.9839 32.3382 21.4177 34.7572 20.1586L35.0541 20.0029C35.4913 19.7829 35.9314 19.5738 36.3742 19.3757C36.4986 19.3199 36.6244 19.2642 36.7502 19.2114C39.6236 17.9649 42.6793 17.2018 45.7964 16.9525C46.3995 16.9048 47.004 16.8791 47.6099 16.8753H47.8346C47.9788 16.8753 48.123 16.8753 48.2672 16.8753C51.8998 16.9477 55.4842 17.7297 58.8229 19.1785C59.3713 19.4147 59.9141 19.6676 60.4512 19.9372C63.8249 21.6437 66.869 23.947 69.4395 26.7381C71.5424 29.0125 73.3246 31.5693 74.7357 34.3364C75.1315 35.1127 75.4971 35.9023 75.8326 36.7053C76.9082 39.2754 77.6677 41.9692 78.0941 44.7264C78.1884 45.3627 78.268 46.0023 78.333 46.6452C78.5215 48.5799 78.5437 50.5275 78.3994 52.4661H78.4037Z" fill="white"/>
<path d="M57.514 4.16632C55.3585 1.99313 52.5643 0.584632 49.5502 0.151925C46.536 -0.280782 43.4643 0.285614 40.7955 1.76622C38.1266 3.24683 36.0043 5.56189 34.7468 8.36442C33.4892 11.1669 33.1641 14.306 33.8201 17.311C33.8187 17.3176 33.8187 17.3244 33.8201 17.331L35.4865 16.5495C35.1485 14.7619 35.2031 12.9211 35.6465 11.1572C36.0899 9.39336 36.9113 7.74949 38.0526 6.3419C39.1938 4.93432 40.6271 3.79739 42.2511 3.01152C43.875 2.22566 45.6499 1.81005 47.4503 1.79409C49.2507 1.77814 51.0325 2.16222 52.6698 2.91918C54.3072 3.67615 55.7599 4.7875 56.9255 6.17464C58.091 7.56178 58.9408 9.19083 59.4147 10.9466C59.8886 12.7023 59.9752 14.5419 59.6682 16.3352H59.6766L61.3445 17.0896C61.3445 17.0739 61.3445 17.0596 61.3544 17.0439C61.5407 16.1131 61.6354 15.166 61.6371 14.2163C61.6407 12.3489 61.2782 10.4992 60.5705 8.77426C59.8628 7.04927 58.824 5.48313 57.514 4.16632Z" fill="white"/>
</svg>
